<svg width="197" height="78" viewBox="0 0 197 78" fill="none" xmlns="http://www.w3.org/2000/svg">
<path d="M194.041 66.664C194.041 66.664 192.115 88.0984 167.59 64.2864C143.066 40.4744 141.139 61.9089 141.139 61.9089C141.139 61.9089 145.567 93.9208 111.608 59.2545C77.6485 24.5882 82.0766 56.6002 82.0766 56.6002C82.0766 56.6002 79.491 85.3664 50.3714 53.7504C21.2518 22.1344 18.6662 50.9006 18.6662 50.9006M187.678 48.0534C187.678 48.0534 185.751 69.4879 161.227 45.6758C136.702 21.8638 134.776 43.2983 134.776 43.2983C134.776 43.2983 139.204 75.3102 105.245 40.6439C71.2853 5.97765 75.7134 37.9896 75.7134 37.9896C75.7134 37.9896 73.1278 66.7558 44.0082 35.1398C14.8886 3.5238 12.303 32.29 12.303 32.29M178.334 30.0994C178.334 30.0994 176.407 51.5338 151.883 27.7218C127.358 3.90981 125.431 25.3443 125.431 25.3443C125.431 25.3443 129.859 57.3562 95.9002 22.6899C61.9409 -11.9764 66.369 20.0356 66.369 20.0356C66.369 20.0356 63.7834 48.8018 34.6638 17.1858C5.54423 -14.4302 2.95862 14.336 2.95862 14.336" stroke="#1188EE" stroke-width="4"/>
</svg>
