<svg width="86" height="44" viewBox="0 0 86 44" fill="none" xmlns="http://www.w3.org/2000/svg">
<path fill-rule="evenodd" clip-rule="evenodd" d="M9.63966 0.325782C10.1612 -0.108594 10.8618 -0.108594 11.3834 0.325782C17.8802 5.73677 20.8255 12.2236 21.0111 21.5304C21.0968 25.9745 20.7299 30.0436 19.6133 33.5588C18.4681 37.076 16.4315 40.3257 13.4332 43.0699C13.0549 43.4134 12.5585 43.5253 12.0976 43.3711C11.1793 43.0637 11.023 41.7945 10.5115 41.0034C9.99973 41.795 9.84438 43.0635 8.92539 43.3711C8.46451 43.5253 7.96816 43.4134 7.58986 43.0699C4.5915 40.3257 2.55499 37.076 1.40971 33.5588C0.293102 30.0436 -0.0737632 25.9745 0.0119281 21.5304C0.197553 12.2236 3.1428 5.73677 9.63966 0.325782ZM12.9984 39.0612C14.8746 37.0498 16.0052 34.8549 16.8041 32.3313C17.8092 29.2451 18.0991 25.8367 18.0119 21.6118C17.8672 14.3547 16.4108 9.63194 11.9984 5.24702V18.0731C13.7236 18.5908 14.4984 20.5639 14.4984 22.7371C14.4984 24.9103 13.7236 26.8834 11.9984 27.4011V37.8951C11.9984 37.8951 12.8001 38.7569 12.9984 39.0612ZM7.99834 39.0612C6.12205 37.0498 5.01787 34.8549 4.21893 32.3313C3.21389 29.2451 2.92391 25.8367 3.01112 21.6118C3.15557 14.3691 4.60442 9.6261 8.99834 5.24702V18.0731C7.27311 18.5908 6.49834 20.5639 6.49834 22.7371C6.49834 24.9103 7.27311 26.8834 8.99834 27.4011V37.8951C8.99834 37.8951 8.18922 38.7681 7.99834 39.0612ZM10.4984 20.4051C9.39377 20.4051 8.49834 21.4491 8.49834 22.7371C8.49834 24.0251 9.39377 25.0691 10.4984 25.0691C11.6029 25.0691 12.4984 24.0251 12.4984 22.7371C12.4984 21.4491 11.6029 20.4051 10.4984 20.4051Z" fill="#1188EE"/>
<path fill-rule="evenodd" clip-rule="evenodd" d="M41.6397 0.325782C42.1612 -0.108594 42.8618 -0.108594 43.3834 0.325782C49.8802 5.73677 52.8255 12.2236 53.0111 21.5304C53.0968 25.9745 52.7299 30.0436 51.6133 33.5588C50.4681 37.076 48.4315 40.3257 45.4332 43.0699C45.0549 43.4134 44.5585 43.5253 44.0976 43.3711C43.1793 43.0637 43.023 41.7945 42.5115 41.0034C41.9998 41.795 41.8444 43.0635 40.9254 43.3711C40.4645 43.5253 39.9682 43.4134 39.5899 43.0699C36.5915 40.3257 34.555 37.076 33.4097 33.5588C32.2931 30.0436 31.9262 25.9745 32.0119 21.5304C32.1976 12.2236 35.1428 5.73677 41.6397 0.325782ZM44.9984 39.0612C46.8746 37.0498 48.0052 34.8549 48.8041 32.3313C49.8092 29.2451 50.0991 25.8367 50.0119 21.6118C49.8672 14.3547 48.4108 9.63194 43.9984 5.24702V18.0731C45.7236 18.5908 46.4984 20.5639 46.4984 22.7371C46.4984 24.9103 45.7236 26.8834 43.9984 27.4011V37.8951C43.9984 37.8951 44.8001 38.7569 44.9984 39.0612ZM39.9984 39.0612C38.1221 37.0498 37.0179 34.8549 36.2189 32.3313C35.2139 29.2451 34.9239 25.8367 35.0111 21.6118C35.1556 14.3691 36.6044 9.6261 40.9984 5.24702V18.0731C39.2731 18.5908 38.4984 20.5639 38.4984 22.7371C38.4984 24.9103 39.2731 26.8834 40.9984 27.4011V37.8951C40.9984 37.8951 40.1892 38.7681 39.9984 39.0612ZM42.4984 20.4051C41.3938 20.4051 40.4984 21.4491 40.4984 22.7371C40.4984 24.0251 41.3938 25.0691 42.4984 25.0691C43.6029 25.0691 44.4984 24.0251 44.4984 22.7371C44.4984 21.4491 43.6029 20.4051 42.4984 20.4051Z" fill="#1188EE"/>
<path fill-rule="evenodd" clip-rule="evenodd" d="M73.6397 0.325782C74.1612 -0.108594 74.8618 -0.108594 75.3834 0.325782C81.8802 5.73677 84.8255 12.2236 85.0111 21.5304C85.0968 25.9745 84.7299 30.0436 83.6133 33.5588C82.4681 37.076 80.4315 40.3257 77.4332 43.0699C77.0549 43.4134 76.5585 43.5253 76.0976 43.3711C75.1793 43.0637 75.023 41.7945 74.5115 41.0034C73.9998 41.795 73.8444 43.0635 72.9254 43.3711C72.4645 43.5253 71.9682 43.4134 71.5899 43.0699C68.5915 40.3257 66.555 37.076 65.4097 33.5588C64.2931 30.0436 63.9262 25.9745 64.0119 21.5304C64.1976 12.2236 67.1428 5.73677 73.6397 0.325782ZM76.9984 39.0612C78.8746 37.0498 80.0052 34.8549 80.8041 32.3313C81.8092 29.2451 82.0991 25.8367 82.0119 21.6118C81.8672 14.3547 80.4108 9.63194 75.9984 5.24702V18.0731C77.7236 18.5908 78.4984 20.5639 78.4984 22.7371C78.4984 24.9103 77.7236 26.8834 75.9984 27.4011V37.8951C75.9984 37.8951 76.8001 38.7569 76.9984 39.0612ZM71.9984 39.0612C70.1221 37.0498 69.0179 34.8549 68.2189 32.3313C67.2139 29.2451 66.9239 25.8367 67.0111 21.6118C67.1556 14.3691 68.6044 9.6261 72.9984 5.24702V18.0731C71.2731 18.5908 70.4984 20.5639 70.4984 22.7371C70.4984 24.9103 71.2731 26.8834 72.9984 27.4011V37.8951C72.9984 37.8951 72.1892 38.7681 71.9984 39.0612ZM74.4984 20.4051C73.3938 20.4051 72.4984 21.4491 72.4984 22.7371C72.4984 24.0251 73.3938 25.0691 74.4984 25.0691C75.6029 25.0691 76.4984 24.0251 76.4984 22.7371C76.4984 21.4491 75.6029 20.4051 74.4984 20.4051Z" fill="#1188EE"/>
</svg>
