<svg width="22" height="44" viewBox="0 0 22 44" fill="none" xmlns="http://www.w3.org/2000/svg">
<path fill-rule="evenodd" clip-rule="evenodd" d="M9.63967 0.325782C10.1612 -0.108594 10.8618 -0.108594 11.3834 0.325782C17.8802 5.73677 20.8255 12.2236 21.0111 21.5304C21.0968 25.9745 20.7299 30.0436 19.6133 33.5588C18.4681 37.076 16.4315 40.3257 13.4332 43.0699C13.0549 43.4134 12.5585 43.5253 12.0976 43.3711C11.1793 43.0637 11.023 41.7945 10.5115 41.0034C9.99974 41.795 9.84439 43.0635 8.9254 43.3711C8.46452 43.5253 7.96817 43.4134 7.58987 43.0699C4.5915 40.3257 2.55499 37.076 1.40971 33.5588C0.293102 30.0436 -0.0737632 25.9745 0.0119281 21.5304C0.197553 12.2236 3.1428 5.73677 9.63967 0.325782ZM12.9984 39.0612C14.8746 37.0498 16.0052 34.8549 16.8041 32.3313C17.8092 29.2451 18.0991 25.8367 18.0119 21.6118C17.8672 14.3547 16.4108 9.63194 11.9984 5.24702V18.0731C13.7236 18.5908 14.4984 20.5639 14.4984 22.7371C14.4984 24.9103 13.7236 26.8834 11.9984 27.4011V37.8951C11.9984 37.8951 12.8001 38.7569 12.9984 39.0612ZM7.99835 39.0612C6.12206 37.0498 5.01787 34.8549 4.21893 32.3313C3.21389 29.2451 2.92391 25.8367 3.01112 21.6118C3.15557 14.3691 4.60442 9.6261 8.99835 5.24702V18.0731C7.27312 18.5908 6.49835 20.5639 6.49835 22.7371C6.49835 24.9103 7.27312 26.8834 8.99835 27.4011V37.8951C8.99835 37.8951 8.18923 38.7681 7.99835 39.0612ZM10.4984 20.4051C9.39378 20.4051 8.49835 21.4491 8.49835 22.7371C8.49835 24.0251 9.39378 25.0691 10.4984 25.0691C11.6029 25.0691 12.4984 24.0251 12.4984 22.7371C12.4984 21.4491 11.6029 20.4051 10.4984 20.4051Z" fill="#1188EE"/>
</svg>
